<svg fill="none" height="394" viewBox="0 0 1600 394" width="1600" xmlns="http://www.w3.org/2000/svg" xmlns:xlink="http://www.w3.org/1999/xlink"><linearGradient id="a" gradientUnits="userSpaceOnUse" x1="0" x2="368" y1=".5" y2=".5"><stop offset="0" stop-color="#17191b" stop-opacity="0"/><stop offset=".895" stop-color="#6e7781"/></linearGradient><g opacity=".4"><g stroke="url(#a)"><path d="m0-.5h368" transform="matrix(-.00000004 -1 -1 .00000004 42.2432 368)"/><path d="m0-.5h368" transform="matrix(-.00000004 -1 -1 .00000004 85.4863 368)"/><path d="m0-.5h368" transform="matrix(-.00000004 -1 -1 .00000004 128.729 368)"/><path d="m0-.5h368" transform="matrix(-.00000004 -1 -1 .00000004 171.973 368)"/><path d="m0-.5h368" transform="matrix(-.00000004 -1 -1 .00000004 215.216 368)"/><path d="m0-.5h368" transform="matrix(-.00000004 -1 -1 .00000004 258.459 368)"/><path d="m0-.5h368" transform="matrix(-.00000004 -1 -1 .00000004 301.703 368)"/><path d="m0-.5h368" transform="matrix(-.00000004 -1 -1 .00000004 344.946 368)"/><path d="m0-.5h368" transform="matrix(-.00000004 -1 -1 .00000004 388.189 368)"/><path d="m0-.5h368" transform="matrix(-.00000004 -1 -1 .00000004 431.433 368)"/><path d="m0-.5h368" transform="matrix(-.00000004 -1 -1 .00000004 474.676 368)"/><path d="m0-.5h368" transform="matrix(-.00000004 -1 -1 .00000004 517.919 368)"/><path d="m0-.5h368" transform="matrix(-.00000004 -1 -1 .00000004 561.162 368)"/><path d="m0-.5h368" transform="matrix(-.00000004 -1 -1 .00000004 604.405 368)"/><path d="m0-.5h368" transform="matrix(-.00000004 -1 -1 .00000004 647.648 368)"/><path d="m0-.5h368" transform="matrix(-.00000004 -1 -1 .00000004 690.892 368)"/><path d="m0-.5h368" transform="matrix(-.00000004 -1 -1 .00000004 734.135 368)"/><path d="m0-.5h368" transform="matrix(-.00000004 -1 -1 .00000004 777.378 368)"/><path d="m0-.5h368" transform="matrix(-.00000004 -1 -1 .00000004 820.621 368)"/><path d="m0-.5h368" transform="matrix(-.00000004 -1 -1 .00000004 863.864 368)"/><path d="m0-.5h368" transform="matrix(-.00000004 -1 -1 .00000004 907.107 368)"/><path d="m0-.5h368" transform="matrix(-.00000004 -1 -1 .00000004 950.352 368)"/><path d="m0-.5h368" transform="matrix(-.00000004 -1 -1 .00000004 993.595 368)"/><path d="m0-.5h368" transform="matrix(-.00000004 -1 -1 .00000004 1036.84 368)"/><path d="m0-.5h368" transform="matrix(-.00000004 -1 -1 .00000004 1080.08 368)"/><path d="m0-.5h368" transform="matrix(-.00000004 -1 -1 .00000004 1123.32 368)"/><path d="m0-.5h368" transform="matrix(-.00000004 -1 -1 .00000004 1166.57 368)"/><path d="m0-.5h368" transform="matrix(-.00000004 -1 -1 .00000004 1209.81 368)"/><path d="m0-.5h368" transform="matrix(-.00000004 -1 -1 .00000004 1253.05 368)"/><path d="m0-.5h368" transform="matrix(-.00000004 -1 -1 .00000004 1296.3 368)"/><path d="m0-.5h368" transform="matrix(-.00000004 -1 -1 .00000004 1339.54 368)"/><path d="m0-.5h368" transform="matrix(-.00000004 -1 -1 .00000004 1382.78 368)"/><path d="m0-.5h368" transform="matrix(-.00000004 -1 -1 .00000004 1426.03 368)"/><path d="m0-.5h368" transform="matrix(-.00000004 -1 -1 .00000004 1469.27 368)"/><path d="m0-.5h368" transform="matrix(-.00000004 -1 -1 .00000004 1512.51 368)"/><path d="m0-.5h368" transform="matrix(-.00000004 -1 -1 .00000004 1555.76 368)"/><path d="m0-.5h368" transform="matrix(-.00000004 -1 -1 .00000004 1599 368)"/></g><g stroke="#6e7781"><path d="m0-.5h1600" opacity=".02" transform="matrix(1 0 0 -1 -1 350.223)"/><path d="m0-.5h1600" opacity=".07" transform="matrix(1 0 0 -1 -1 306.445)"/><path d="m0-.5h1600" opacity=".08" transform="matrix(1 0 0 -1 -1 262.666)"/><path d="m0-.5h1600" opacity=".1" transform="matrix(1 0 0 -1 -1 218.889)"/><path d="m0-.5h1600" opacity=".3" transform="matrix(1 0 0 -1 -1 175.111)"/><path d="m0-.5h1600" opacity=".4" transform="matrix(1 0 0 -1 -1 131.334)"/><path d="m0-.5h1600" opacity=".5" transform="matrix(1 0 0 -1 -1 87.5547)"/><path d="m0-.5h1600" opacity=".7" transform="matrix(1 0 0 -1 -1 43.7773)"/><path d="m0-.5h1600" transform="matrix(1 0 0 -1 -1 0)"/></g></g></svg>